<svg width="417" height="24" viewBox="0 0 417 24" fill="none" xmlns="http://www.w3.org/2000/svg">
    <line x1="415.167" y1="5.4815e-09" x2="415.167" y2="20" stroke="black"/>
    <line x1="0.5" y1="2.18557e-08" x2="0.499999" y2="20" stroke="black"/>
    <path d="M0.979821 19.6464C0.784558 19.8417 0.784559 20.1583 0.979821 20.3536L4.1618 23.5355C4.35706 23.7308 4.67365 23.7308 4.86891 23.5355C5.06417 23.3403 5.06417 23.0237 4.86891 22.8284L2.04048 20L4.86891 17.1716C5.06417 16.9763 5.06417 16.6597 4.86891 16.4645C4.67364 16.2692 4.35706 16.2692 4.1618 16.4645L0.979821 19.6464ZM416.354 20.3536C416.549 20.1583 416.549 19.8417 416.354 19.6464L413.172 16.4645C412.976 16.2692 412.66 16.2692 412.464 16.4645C412.269 16.6597 412.269 16.9763 412.464 17.1716L415.293 20L412.464 22.8284C412.269 23.0237 412.269 23.3403 412.464 23.5355C412.66 23.7308 412.976 23.7308 413.172 23.5355L416.354 20.3536ZM1.33337 20.5L416 20.5L416 19.5L1.33337 19.5L1.33337 20.5Z"
          fill="black"/>
</svg>
