<svg width="105" height="24" viewBox="0 0 105 24" fill="none" xmlns="http://www.w3.org/2000/svg">
    <line x1="103.5" y1="2.18557e-08" x2="103.5" y2="20" stroke="black"/>
    <line x1="0.5" y1="2.18557e-08" x2="0.499999" y2="20" stroke="black"/>
    <path d="M0.146447 19.6464C-0.0488155 19.8417 -0.0488155 20.1583 0.146447 20.3536L3.32843 23.5355C3.52369 23.7308 3.84027 23.7308 4.03553 23.5355C4.2308 23.3403 4.2308 23.0237 4.03553 22.8284L1.20711 20L4.03553 17.1716C4.2308 16.9763 4.2308 16.6597 4.03553 16.4645C3.84027 16.2692 3.52369 16.2692 3.32843 16.4645L0.146447 19.6464ZM104.354 20.3536C104.549 20.1583 104.549 19.8417 104.354 19.6464L101.172 16.4645C100.976 16.2692 100.66 16.2692 100.464 16.4645C100.269 16.6597 100.269 16.9763 100.464 17.1716L103.293 20L100.464 22.8284C100.269 23.0237 100.269 23.3403 100.464 23.5355C100.66 23.7308 100.976 23.7308 101.172 23.5355L104.354 20.3536ZM0.5 20.5L104 20.5L104 19.5L0.5 19.5V20.5Z"
          fill="black"/>
</svg>
