<svg width="313" height="24" viewBox="0 0 313 24" fill="none" xmlns="http://www.w3.org/2000/svg">
    <line x1="311.5" y1="7.30866e-09" x2="311.5" y2="20" stroke="black"/>
    <line x1="0.5" y1="2.18557e-08" x2="0.499999" y2="20" stroke="black"/>
    <path d="M0.646447 19.6464C0.451184 19.8417 0.451185 20.1583 0.646447 20.3536L3.82843 23.5355C4.02369 23.7308 4.34027 23.7308 4.53553 23.5355C4.7308 23.3403 4.7308 23.0237 4.53553 22.8284L1.70711 20L4.53553 17.1716C4.7308 16.9763 4.7308 16.6597 4.53553 16.4645C4.34027 16.2692 4.02369 16.2692 3.82843 16.4645L0.646447 19.6464ZM312.354 20.3536C312.549 20.1583 312.549 19.8417 312.354 19.6464L309.172 16.4645C308.976 16.2692 308.66 16.2692 308.464 16.4645C308.269 16.6597 308.269 16.9763 308.464 17.1716L311.293 20L308.464 22.8284C308.269 23.0237 308.269 23.3403 308.464 23.5355C308.66 23.7308 308.976 23.7308 309.172 23.5355L312.354 20.3536ZM1 20.5L312 20.5L312 19.5L1 19.5L1 20.5Z"
          fill="black"/>
</svg>
