<svg width="24" height="200" viewBox="0 0 24 200" fill="none" xmlns="http://www.w3.org/2000/svg">    <line y1="0.5" x2="20" y2="0.5" stroke="black"/>    <line y1="199.5" x2="20" y2="199.5" stroke="black"/>    <path d="M19.6464 199.854C19.8417 200.049 20.1583 200.049 20.3536 199.854L23.5355 196.672C23.7308 196.476 23.7308 196.16 23.5355 195.964C23.3403 195.769 23.0237 195.769 22.8284 195.964L20 198.793L17.1716 195.964C16.9763 195.769 16.6597 195.769 16.4645 195.964C16.2692 196.16 16.2692 196.476 16.4645 196.672L19.6464 199.854ZM20.3536 0.146401C20.1583 -0.0488613 19.8417 -0.0488613 19.6465 0.146401L16.4645 3.32838C16.2692 3.52364 16.2692 3.84023 16.4645 4.03549C16.6597 4.23075 16.9763 4.23075 17.1716 4.03549L20 1.20706L22.8284 4.03549C23.0237 4.23075 23.3403 4.23075 23.5355 4.03549C23.7308 3.84023 23.7308 3.52364 23.5355 3.32838L20.3536 0.146401ZM20.5 199.5L20.5 0.499954L19.5 0.499954L19.5 199.5L20.5 199.5Z"          fill="black"/></svg>