<svg width="208" height="24" viewBox="0 0 208 24" fill="none" xmlns="http://www.w3.org/2000/svg">
    <line x1="207.5" y1="1.08238e-08" x2="207.5" y2="20" stroke="black"/>
    <line x1="0.5" y1="2.18557e-08" x2="0.499999" y2="20" stroke="black"/>
    <path d="M0.656212 19.6464C0.46095 19.8417 0.46095 20.1583 0.656212 20.3536L3.83819 23.5355C4.03346 23.7308 4.35004 23.7308 4.5453 23.5355C4.74056 23.3403 4.74056 23.0237 4.5453 22.8284L1.71687 20L4.5453 17.1716C4.74056 16.9763 4.74056 16.6597 4.5453 16.4645C4.35004 16.2692 4.03345 16.2692 3.83819 16.4645L0.656212 19.6464ZM207.363 20.3536C207.559 20.1583 207.559 19.8417 207.363 19.6464L204.181 16.4645C203.986 16.2692 203.669 16.2692 203.474 16.4645C203.279 16.6597 203.279 16.9763 203.474 17.1716L206.303 20L203.474 22.8284C203.279 23.0237 203.279 23.3403 203.474 23.5355C203.669 23.7308 203.986 23.7308 204.181 23.5355L207.363 20.3536ZM1.00977 20.5L207.01 20.5L207.01 19.5L1.00977 19.5L1.00977 20.5Z"
          fill="black"/>
</svg>
